<svg width="640" height="400" viewBox="0 0 640 400" fill="none" xmlns="http://www.w3.org/2000/svg">
  <defs>
    <linearGradient id="bg" x1="44" y1="28" x2="596" y2="366" gradientUnits="userSpaceOnUse">
      <stop stop-color="#E8FAFF"/>
      <stop offset="1" stop-color="#FFEBDD"/>
    </linearGradient>
    <linearGradient id="screen" x1="132" y1="106" x2="360" y2="292" gradientUnits="userSpaceOnUse">
      <stop stop-color="#30A8B7"/>
      <stop offset="1" stop-color="#0C6B79"/>
    </linearGradient>
    <linearGradient id="cross" x1="420" y1="122" x2="540" y2="254" gradientUnits="userSpaceOnUse">
      <stop stop-color="#FFA761"/>
      <stop offset="1" stop-color="#D56725"/>
    </linearGradient>
  </defs>
  <rect width="640" height="400" rx="24" fill="url(#bg)"/>
  <rect x="24" y="24" width="592" height="352" rx="20" fill="#FFFFFF" fill-opacity="0.56" stroke="#C2DFE8"/>

  <rect x="112" y="96" width="288" height="220" rx="22" fill="#0F4E5E"/>
  <rect x="130" y="114" width="252" height="152" rx="14" fill="url(#screen)"/>
  <path d="M152 214H190L204 190L230 230L248 202L270 230H352" stroke="#D9F8FB" stroke-width="8" stroke-linecap="round" stroke-linejoin="round"/>
  <rect x="206" y="282" width="100" height="14" rx="7" fill="#286A7C"/>

  <rect x="420" y="110" width="120" height="170" rx="18" fill="#0F5A69"/>
  <rect x="444" y="134" width="72" height="122" rx="14" fill="#EAF9FC"/>
  <path d="M470 152H490V176H514V196H490V220H470V196H446V176H470V152Z" fill="url(#cross)"/>
  <circle cx="480" cy="300" r="20" fill="#2C8D9A"/>
  <path d="M470 300H490M480 290V310" stroke="#E8FCFF" stroke-width="5" stroke-linecap="round"/>
</svg>
