<svg width="640" height="400" viewBox="0 0 640 400" fill="none" xmlns="http://www.w3.org/2000/svg">
  <defs>
    <linearGradient id="bg" x1="44" y1="34" x2="600" y2="362" gradientUnits="userSpaceOnUse">
      <stop stop-color="#E8F9FF"/>
      <stop offset="1" stop-color="#DDF2FF"/>
    </linearGradient>
    <linearGradient id="drill" x1="196" y1="148" x2="470" y2="286" gradientUnits="userSpaceOnUse">
      <stop stop-color="#21A1B0"/>
      <stop offset="1" stop-color="#0B6A78"/>
    </linearGradient>
  </defs>
  <rect width="640" height="400" rx="24" fill="url(#bg)"/>
  <rect x="24" y="24" width="592" height="352" rx="20" fill="#FFFFFF" fill-opacity="0.58" stroke="#B9DDE9"/>

  <rect x="168" y="162" width="238" height="84" rx="22" fill="url(#drill)"/>
  <rect x="402" y="178" width="84" height="52" rx="16" fill="#0B6A78"/>
  <rect x="146" y="192" width="28" height="24" rx="8" fill="#1A8798"/>
  <rect x="240" y="236" width="54" height="106" rx="14" fill="#0E6270"/>
  <rect x="254" y="252" width="26" height="58" rx="8" fill="#66C7D2"/>
  <rect x="480" y="188" width="78" height="10" rx="5" fill="#9BD3DE"/>
  <rect x="558" y="184" width="38" height="18" rx="9" fill="#BFDDE7"/>

  <circle cx="214" cy="205" r="18" fill="#D4F2F6"/>
  <circle cx="214" cy="205" r="8" fill="#0E6572"/>
  <rect x="84" y="92" width="182" height="20" rx="10" fill="#A4D3DF"/>
  <rect x="84" y="124" width="132" height="14" rx="7" fill="#C6E7EF"/>
</svg>
