<svg width="640" height="400" viewBox="0 0 640 400" fill="none" xmlns="http://www.w3.org/2000/svg">
  <defs>
    <linearGradient id="bg" x1="40" y1="28" x2="594" y2="366" gradientUnits="userSpaceOnUse">
      <stop stop-color="#E8FBFF"/>
      <stop offset="1" stop-color="#FFE8DE"/>
    </linearGradient>
    <linearGradient id="watch" x1="142" y1="102" x2="332" y2="284" gradientUnits="userSpaceOnUse">
      <stop stop-color="#2FB1BF"/>
      <stop offset="1" stop-color="#0C6E7B"/>
    </linearGradient>
    <linearGradient id="buds" x1="388" y1="118" x2="526" y2="292" gradientUnits="userSpaceOnUse">
      <stop stop-color="#FFA864"/>
      <stop offset="1" stop-color="#D96A27"/>
    </linearGradient>
  </defs>
  <rect width="640" height="400" rx="24" fill="url(#bg)"/>
  <rect x="24" y="24" width="592" height="352" rx="20" fill="#FFFFFF" fill-opacity="0.56" stroke="#BFDDE8"/>

  <rect x="154" y="78" width="126" height="38" rx="16" fill="#0F5968"/>
  <rect x="154" y="286" width="126" height="38" rx="16" fill="#0F5968"/>
  <rect x="138" y="110" width="158" height="182" rx="36" fill="url(#watch)"/>
  <rect x="168" y="142" width="98" height="118" rx="22" fill="#D7F4F8"/>
  <rect x="184" y="160" width="66" height="10" rx="5" fill="#83C8D3"/>
  <rect x="184" y="178" width="44" height="10" rx="5" fill="#A5DCE4"/>
  <circle cx="236" cy="224" r="16" fill="#1A7D8D"/>
  <path d="M236 214V224L243 230" stroke="#DAFAFF" stroke-width="4" stroke-linecap="round"/>

  <ellipse cx="426" cy="208" rx="58" ry="86" fill="#0F5866"/>
  <ellipse cx="510" cy="208" rx="58" ry="86" fill="#0F5866"/>
  <ellipse cx="426" cy="208" rx="46" ry="72" fill="url(#buds)"/>
  <ellipse cx="510" cy="208" rx="46" ry="72" fill="url(#buds)"/>
  <rect x="416" y="258" width="20" height="54" rx="10" fill="#0F5866"/>
  <rect x="500" y="258" width="20" height="54" rx="10" fill="#0F5866"/>
</svg>
