<svg width="640" height="400" viewBox="0 0 640 400" fill="none" xmlns="http://www.w3.org/2000/svg">
  <defs>
    <linearGradient id="bg" x1="46" y1="30" x2="592" y2="366" gradientUnits="userSpaceOnUse">
      <stop stop-color="#ECFAFF"/>
      <stop offset="1" stop-color="#FFEBDD"/>
    </linearGradient>
    <linearGradient id="shirt" x1="176" y1="108" x2="336" y2="326" gradientUnits="userSpaceOnUse">
      <stop stop-color="#35A6B5"/>
      <stop offset="1" stop-color="#0E6C79"/>
    </linearGradient>
    <linearGradient id="rack" x1="360" y1="84" x2="528" y2="290" gradientUnits="userSpaceOnUse">
      <stop stop-color="#FFAA68"/>
      <stop offset="1" stop-color="#D86A27"/>
    </linearGradient>
  </defs>
  <rect width="640" height="400" rx="24" fill="url(#bg)"/>
  <rect x="24" y="24" width="592" height="352" rx="20" fill="#FFFFFF" fill-opacity="0.56" stroke="#C1DEE8"/>

  <path d="M196 126L236 96H276L316 126L344 112L382 160L346 188L322 166V322H190V166L166 188L130 160L168 112L196 126Z" fill="url(#shirt)"/>
  <rect x="220" y="126" width="72" height="28" rx="14" fill="#94D9E2"/>
  <rect x="214" y="178" width="84" height="10" rx="5" fill="#D7F5F8"/>
  <rect x="214" y="198" width="66" height="10" rx="5" fill="#B7E8EE"/>

  <rect x="398" y="84" width="12" height="226" rx="6" fill="#215E6D"/>
  <rect x="526" y="84" width="12" height="226" rx="6" fill="#215E6D"/>
  <rect x="398" y="104" width="140" height="12" rx="6" fill="#215E6D"/>

  <path d="M434 148C434 130 446 118 462 118C478 118 490 130 490 148H480C480 136 473 128 462 128C451 128 444 136 444 148H434Z" fill="#2D7183"/>
  <path d="M424 156H500L490 220H434L424 156Z" fill="url(#rack)"/>
  <rect x="436" y="172" width="52" height="10" rx="5" fill="#FFD9C3"/>

  <rect x="410" y="246" width="116" height="18" rx="9" fill="#D8EDF3"/>
  <rect x="410" y="274" width="86" height="14" rx="7" fill="#E7F5F8"/>
</svg>
